<?xml version="1.0" standalone="no"?>
<!DOCTYPE svg PUBLIC "-//W3C//DTD SVG 20010904//EN"
 "http://www.w3.org/TR/2001/REC-SVG-20010904/DTD/svg10.dtd">
<svg version="1.0" xmlns="http://www.w3.org/2000/svg"
 width="520.000000pt" height="167.000000pt" viewBox="0 0 520.000000 167.000000"
 preserveAspectRatio="xMidYMid meet">

<g transform="translate(0.000000,167.000000) scale(0.100000,-0.100000)"
fill="#000000" stroke="none">
<path d="M650 1425 c-88 -20 -137 -39 -252 -97 -153 -78 -217 -156 -218 -263
0 -73 42 -138 166 -259 57 -56 104 -104 104 -107 0 -4 -38 -28 -84 -53 -95
-54 -181 -131 -202 -181 -24 -59 -18 -93 24 -135 72 -72 206 -89 320 -40 149
64 162 206 32 353 l-42 47 34 14 c65 27 235 84 333 111 91 26 138 45 108 45
-16 0 -217 -61 -372 -112 l-125 -41 -107 111 c-142 146 -170 200 -147 289 23
94 164 200 353 266 77 27 104 31 188 32 92 0 100 -2 118 -24 32 -39 25 -79
-21 -123 -33 -31 -37 -38 -21 -38 28 0 77 53 85 91 7 38 -9 75 -46 102 -35 26
-141 31 -228 12z m-73 -893 c56 -119 -10 -210 -170 -232 -158 -23 -267 64
-213 168 28 52 121 127 230 185 l49 26 39 -47 c22 -26 51 -71 65 -100z"/>
<path d="M1120 1028 c-54 -12 -69 -24 -42 -32 28 -9 32 -32 32 -203 0 -144 -1
-153 -22 -173 l-22 -20 69 0 c67 0 69 1 46 16 -23 17 -23 17 -20 220 2 112 4
204 4 203 0 -1 -20 -6 -45 -11z"/>
<path d="M1920 1028 c-54 -12 -69 -24 -42 -32 27 -9 32 -43 32 -212 0 -134 -1
-144 -22 -164 l-22 -20 69 0 c67 0 69 1 46 16 -23 17 -23 17 -20 220 2 112 4
204 4 203 0 -1 -20 -6 -45 -11z"/>
<path d="M2225 1028 c-69 -16 -72 -18 -45 -31 25 -13 25 -13 28 -187 3 -168 2
-176 -19 -192 -21 -18 -19 -18 52 -18 70 0 72 1 51 16 -22 15 -23 19 -22 216
1 110 0 201 -2 202 -2 2 -21 -1 -43 -6z"/>
<path d="M3388 1027 c-51 -11 -60 -22 -29 -32 11 -3 21 -19 25 -37 8 -43 7
-311 -2 -324 -4 -6 -16 -16 -27 -22 -16 -9 -6 -11 54 -12 71 0 73 0 52 18 -20
16 -22 25 -19 112 l3 94 35 8 c77 16 100 -12 100 -120 0 -72 -4 -82 -35 -100
-16 -9 -6 -11 55 -12 70 0 73 1 52 16 -20 14 -22 24 -22 104 0 49 -4 100 -10
114 -19 50 -71 56 -164 20 -18 -7 -19 -3 -13 89 3 53 2 96 -1 96 -4 -1 -28 -6
-54 -12z"/>
<path d="M1596 1001 c-17 -18 -17 -20 3 -40 17 -17 25 -19 41 -11 22 12 26 40
8 58 -17 17 -32 15 -52 -7z"/>
<path d="M1613 867 c-53 -15 -60 -23 -34 -37 19 -10 21 -20 21 -105 0 -86 -2
-95 -22 -109 -21 -15 -18 -16 52 -15 60 0 71 3 53 11 -27 13 -31 35 -27 163 2
58 3 105 1 104 -1 -1 -21 -6 -44 -12z"/>
<path d="M2540 867 c-13 -7 -31 -24 -39 -39 -26 -45 -6 -76 71 -117 68 -36 92
-66 67 -82 -22 -14 -73 -10 -97 7 -26 18 -52 12 -52 -10 0 -53 173 -45 194 9
20 53 0 81 -93 130 -38 20 -56 36 -56 49 0 30 36 37 83 16 43 -20 52 -18 52
12 0 34 -81 50 -130 25z"/>
<path d="M2900 863 c-41 -15 -43 -17 -22 -26 21 -10 22 -14 22 -174 0 -156 -1
-165 -20 -170 -11 -3 -20 -9 -20 -14 0 -12 157 -11 165 1 3 6 -3 10 -14 10
-42 0 -51 10 -51 59 l0 46 58 -3 c52 -3 62 0 92 24 90 76 78 226 -19 255 -34
10 -48 9 -81 -4 -35 -14 -42 -14 -47 -1 -6 17 -6 17 -63 -3z m170 -33 c10 -5
26 -30 35 -54 20 -53 14 -107 -16 -137 -23 -23 -76 -25 -107 -3 -19 13 -22 24
-22 91 0 57 4 81 17 95 18 20 64 24 93 8z"/>
<path d="M3930 862 c-104 -52 -108 -207 -7 -255 44 -21 99 -22 137 -2 44 23
37 30 -24 27 -50 -3 -57 -1 -89 30 -20 18 -38 43 -42 55 -6 22 -4 22 87 25
l93 3 3 29 c6 46 -6 75 -38 91 -38 20 -77 19 -120 -3z m104 -55 c6 -15 8 -28
5 -30 -2 -3 -34 -7 -71 -10 -59 -4 -68 -2 -68 12 0 67 112 91 134 28z"/>
<path d="M4312 863 c-42 -15 -43 -16 -23 -30 19 -13 21 -24 21 -108 0 -86 -2
-95 -22 -109 -21 -15 -17 -16 67 -15 83 0 87 1 55 12 l-35 12 0 95 0 95 49 0
c41 0 50 4 57 22 14 38 -14 49 -61 24 -50 -26 -50 -26 -50 -1 0 23 -1 23 -58
3z"/>
<path d="M4763 873 c-34 -7 -81 -59 -93 -104 -34 -124 95 -222 210 -159 l35
19 -53 1 c-79 0 -142 42 -142 92 0 16 10 18 89 18 72 0 90 3 95 16 22 56 -16
113 -79 119 -22 2 -50 1 -62 -2z m80 -55 c30 -35 22 -48 -30 -48 -27 0 -58 -3
-70 -6 -19 -5 -23 -2 -23 18 0 60 81 84 123 36z"/>
<path d="M1249 863 c-1 -5 0 -17 0 -29 1 -13 -12 -33 -33 -52 -20 -17 -36 -35
-36 -40 0 -13 109 -131 132 -143 21 -11 78 -3 78 12 0 5 -7 9 -16 9 -22 0
-134 116 -134 139 0 24 24 45 87 74 29 13 50 27 46 31 -9 9 -123 8 -124 -1z"/>
</g>
</svg>
